<svg width="176" height="36" viewBox="0 0 176 36" fill="none" xmlns="http://www.w3.org/2000/svg">
<path fill-rule="evenodd" clip-rule="evenodd" d="M3.81494 0.5C3.81494 1.07079 3.81494 1.64168 3.81494 2.21257C9.00506 3.17204 13.8968 5.15698 17.3345 9.39151C15.1827 4.71578 9.7032 2.21363 3.81494 0.5Z" fill="#00A0E3"/>
<path fill-rule="evenodd" clip-rule="evenodd" d="M1.30444 3.00146C1.30444 3.64942 1.30444 4.29766 1.30444 4.9457C7.70194 4.9457 11.9514 6.07094 17.1068 9.64165C13.0931 5.75749 7.94825 2.82531 1.30444 3.00146Z" fill="#00A0E3"/>
<path fill-rule="evenodd" clip-rule="evenodd" d="M31.5853 0.5C31.5853 1.07079 31.5853 1.64168 31.5853 2.21257C26.3951 3.17204 21.5034 5.15698 18.0657 9.39151C20.2174 4.71578 25.697 2.21363 31.5853 0.5Z" fill="#00A0E3"/>
<path fill-rule="evenodd" clip-rule="evenodd" d="M34.0958 3.00146C34.0958 3.64942 34.0958 4.29766 34.0958 4.9457C27.6982 4.9457 23.4488 6.07094 18.2934 9.64165C22.3072 5.75749 27.4519 2.82531 34.0958 3.00146Z" fill="#00A0E3"/>
<path fill-rule="evenodd" clip-rule="evenodd" d="M18.0657 10.8235C18.0657 19.0491 18.0657 27.2744 18.0657 35.5C23.6551 32.0112 28.0702 30.1064 34.7592 30.52C34.7592 26.6565 34.7592 22.793 34.7592 18.9296C32.9885 18.9296 31.2179 18.9296 29.4473 18.9296C29.4473 17.1498 29.4473 15.37 29.4473 13.5904C31.233 13.5904 33.0186 13.5904 34.8043 13.5904C34.8043 12.7379 34.8043 11.8856 34.8043 11.0331C35.6449 11.0331 36.4855 11.0331 37.3262 11.0331C37.3262 10.2005 37.3262 9.36807 37.3262 8.5355C35.6102 8.5355 33.8941 8.5355 32.178 8.5355C32.178 7.6731 32.178 6.81052 32.178 5.94812C26.3308 6.4025 23.0359 7.5161 18.0658 10.8235H18.0657ZM26.7995 16.3516H27.6958V17.2501H26.7995V16.3516ZM27.7505 19.9033H28.9705V21.126H27.7505V19.9033ZM23.7705 14.4523H25.6655V16.3516H23.7705V14.4523ZM27.9635 10.504H29.3065V11.85H27.9635V10.504Z" fill="#00A0E3"/>
<path d="M0.386754 7.67256L0.406144 5.82819L0.766878 5.83733C4.34685 5.92853 6.91019 6.20407 9.30747 6.90176C11.7077 7.60031 13.9237 8.7165 16.8069 10.4883L16.9766 10.5925L17.0074 16.401L16.2938 15.8952L16.2652 10.9959C13.5162 9.31606 11.3897 8.25279 9.10876 7.58886C6.85884 6.93389 4.44092 6.66134 1.11148 6.56263L1.10025 7.67843L0.386658 7.67266L0.386754 7.67256Z" fill="#00A0E3"/>
<path d="M5.52354 16.2434C4.74544 16.1543 3.95304 16.0725 3.15593 16.013C2.48726 15.9632 1.81551 15.929 1.14713 15.9198V29.6255C4.3321 29.7007 6.85368 30.0107 9.2475 30.6792C11.5719 31.3283 13.7668 32.3116 16.3219 33.7424L16.2795 22.5277H16.9931L17.0403 34.9764L16.5032 34.6691C13.7625 33.0995 11.4744 32.0442 9.05715 31.3692C6.63569 30.693 4.07235 30.3925 0.783421 30.3333L0.430847 30.3271V15.1995H0.788989C1.58734 15.1995 2.39837 15.2374 3.20892 15.2979C4.01082 15.3578 4.81378 15.4407 5.60475 15.5313L5.52354 16.2435V16.2434Z" fill="#00A0E3"/>
<path d="M0.430882 13.779V8.67057L0.768 8.65056C2.12857 8.57042 3.56997 8.57417 4.99457 8.68818C6.2914 8.79198 7.57854 8.98757 8.78389 9.29409L9.05526 9.36307V19.9939H8.33898V9.9227C7.25342 9.66467 6.10124 9.49651 4.93841 9.40338C3.6603 9.30111 2.37258 9.28918 1.14707 9.34787V13.779H0.430786L0.430882 13.779Z" fill="#00A0E3"/>
<path d="M11.0106 14.9347L17.0048 17.6916L17.0454 21.1211L14.1175 19.4143L14.1921 30.5294L13.7031 30.3398C11.8343 29.6162 10.3478 29.0572 8.83303 28.6266C7.32569 28.1982 5.78821 27.8966 3.81128 27.6851L3.88673 26.9729C5.90906 27.189 7.48245 27.4979 9.02598 27.9367C10.4274 28.3351 11.8037 28.8412 13.4715 29.4836L13.3956 18.165L16.317 19.8678L16.2966 18.1528L10.7141 15.5853L11.0107 14.9347H11.0106Z" fill="#00A0E3"/>
<path d="M13.6832 26.5737L13.6765 26.5713C12.9208 26.2946 12.1641 26.0182 11.3239 25.7292C10.9145 25.5884 10.5012 25.4502 10.0994 25.3244C9.67943 25.1932 9.26926 25.0728 8.88386 24.9735C8.0904 24.7686 7.31988 24.6248 6.54946 24.4814L6.5437 24.4805L6.67521 23.7767L6.67953 23.7775C7.45772 23.9227 8.23602 24.068 9.06009 24.2808C9.48524 24.3904 9.90366 24.5124 10.3121 24.6402C10.7385 24.7736 11.1544 24.9126 11.5561 25.0507C12.3335 25.3179 13.1275 25.608 13.9213 25.8981L13.9294 25.9006L13.6831 26.5737H13.6832Z" fill="#00A0E3"/>
<path d="M10.1369 25.0678L10.2033 20.951C8.28214 20.0734 6.74485 19.8802 4.75621 19.6303L3.99817 19.5328L4.08773 18.8232L4.84289 18.9181C6.96687 19.185 8.59123 19.389 10.7164 20.4001L10.9245 20.4991L10.8505 25.079L10.1369 25.0679V25.0678Z" fill="#00A0E3"/>
<path d="M3.37234 11.8514C3.78318 11.8877 4.19421 11.9242 4.73973 11.9789C5.19866 12.0249 5.65413 12.0764 6.10231 12.1375C6.99723 12.2599 7.87478 12.4241 8.75204 12.5881L8.76289 12.5898L8.63138 13.2937L8.62197 13.2919C7.75643 13.1297 6.8903 12.9679 6.00738 12.847C5.56304 12.7863 5.11668 12.7359 4.67004 12.6911C4.31007 12.6549 3.81006 12.6106 3.3111 12.5665L3.37243 11.8513L3.37234 11.8514Z" fill="#00A0E3"/>
<path d="M8.79225 10.6973C9.11353 10.7874 9.43558 10.8777 9.76262 10.9796C10.1078 11.0872 10.4779 11.2125 10.8976 11.3729C11.7344 11.6926 12.7735 12.1532 13.8121 12.6135L13.5237 13.2699C12.4935 12.813 11.4627 12.3562 10.6429 12.0429C10.2341 11.8868 9.87857 11.7662 9.5499 11.6637C9.20337 11.5557 8.90254 11.4713 8.60199 11.3871L8.79234 10.6971L8.79225 10.6973Z" fill="#00A0E3"/>
<path d="M31.2122 26.3005H29.2201V28.2971H31.2122V26.3005Z" fill="#00A0E3"/>
<path d="M37.3749 5.07059H36.1434V6.30482H37.3749V5.07059Z" fill="#00A0E3"/>
<path d="M39.49 6.30475H37.3748V8.42466H39.49V6.30475Z" fill="#00A0E3"/>
<path d="M40.8759 6.30475H39.49V7.69378H40.8759V6.30475Z" fill="#00A0E3"/>
<path d="M44.8506 3.68063H43.545V4.98914H44.8506V3.68063Z" fill="#00A0E3"/>
<path d="M37.326 16.357H34.759V18.9298H37.326V16.357Z" fill="#00A0E3"/>
<path d="M34.7593 15.0105H33.4163V16.3566H34.7593V15.0105Z" fill="#00A0E3"/>
<path d="M39.893 11.0329H37.326V13.6057H39.893V11.0329Z" fill="#00A0E3"/>
<path d="M41.2814 9.64169H39.8931V11.033H41.2814V9.64169Z" fill="#00A0E3"/>
<path d="M42.8661 14.4341H39.8931V16.3569H42.8661V14.4341Z" fill="#00A0E3"/>
<path d="M43.7124 16.3564H42.866V17.2046H43.7124V16.3564Z" fill="#00A0E3"/>
<path d="M39.3798 17.2187H38.5334V18.067H39.3798V17.2187Z" fill="#00A0E3"/>
<path d="M42.7169 19.2139H41.5029V20.4306H42.7169V19.2139Z" fill="#00A0E3"/>
<path d="M0.788996 14.4964C1.18443 14.4964 1.50499 14.1751 1.50499 13.7788C1.50499 13.3824 1.18443 13.0612 0.788996 13.0612C0.393562 13.0612 0.072998 13.3824 0.072998 13.7788C0.072998 14.1751 0.393562 14.4964 0.788996 14.4964Z" fill="#00A0E3"/>
<path d="M5.56408 16.6044C5.95951 16.6044 6.28007 16.2831 6.28007 15.8868C6.28007 15.4904 5.95951 15.1692 5.56408 15.1692C5.16864 15.1692 4.84808 15.4904 4.84808 15.8868C4.84808 16.2831 5.16864 16.6044 5.56408 16.6044Z" fill="#00A0E3"/>
<path d="M10.8622 15.9777C11.2576 15.9777 11.5782 15.6564 11.5782 15.2601C11.5782 14.8638 11.2576 14.5425 10.8622 14.5425C10.4667 14.5425 10.1462 14.8638 10.1462 15.2601C10.1462 15.6564 10.4667 15.9777 10.8622 15.9777Z" fill="#00A0E3"/>
<path d="M3.84887 22.121C4.24431 22.121 4.56487 21.7997 4.56487 21.4034C4.56487 21.0071 4.24431 20.6858 3.84887 20.6858C3.45344 20.6858 3.13287 21.0071 3.13287 21.4034C3.13287 21.7997 3.45344 22.121 3.84887 22.121Z" fill="#00A0E3"/>
<path d="M8.22539 22.7786C8.62083 22.7786 8.94139 22.4573 8.94139 22.061C8.94139 21.6646 8.62083 21.3434 8.22539 21.3434C7.82996 21.3434 7.5094 21.6646 7.5094 22.061C7.5094 22.4573 7.82996 22.7786 8.22539 22.7786Z" fill="#00A0E3"/>
<path d="M6.60962 24.8458C7.00505 24.8458 7.32561 24.5245 7.32561 24.1282C7.32561 23.7318 7.00505 23.4106 6.60962 23.4106C6.21418 23.4106 5.89362 23.7318 5.89362 24.1282C5.89362 24.5245 6.21418 24.8458 6.60962 24.8458Z" fill="#00A0E3"/>
<path d="M3.9006 21.0485L8.27701 21.7063L8.17372 22.4158L3.79712 21.758L3.9006 21.0485Z" fill="#00A0E3"/>
<path d="M4.31158 11.3848H2.66754V13.0325H4.31158V11.3848Z" fill="#00A0E3"/>
<path d="M14.6253 12.3234L13.0859 11.7451L12.5089 13.2879L14.0482 13.8662L14.6253 12.3234Z" fill="#00A0E3"/>
<path d="M4.97004 18.4235L3.33148 18.29L3.19828 19.9323L4.83684 20.0658L4.97004 18.4235Z" fill="#00A0E3"/>
<path d="M4.77694 26.5845L3.14886 26.3561L2.92092 27.9878L4.54899 28.2163L4.77694 26.5845Z" fill="#00A0E3"/>
<path d="M17.4583 21.7036H15.8143V23.3513H17.4583V21.7036Z" fill="#00A0E3"/>
<path d="M55.4791 27.1246V13.5858H58.8563L62.4525 23.9199L66.0303 13.5858H69.4257V27.1246H66.9249V16.9888L63.5112 27.1246H61.3937L57.9801 16.9888V27.1246H55.4792H55.4791ZM70.9968 27.1246L76.6343 13.5858H78.6302L84.2677 27.1246H81.5022L80.1331 23.6301H75.1313L73.7622 27.1246H70.9967H70.9968ZM76.0837 21.1968H79.1809L77.6323 17.2451L76.0836 21.1968H76.0837ZM83.3746 16.0192V13.5858H85.8025V15.9277C85.8025 16.5009 85.7477 16.9279 85.6382 17.2084C85.5287 17.4889 85.3643 17.7268 85.1454 17.922C84.9263 18.1294 84.6616 18.2909 84.3512 18.4068C84.0409 18.5227 83.7275 18.5806 83.4111 18.5806V17.3547C83.7032 17.367 83.9496 17.2785 84.1504 17.0894C84.3512 16.9004 84.4515 16.6472 84.4515 16.3301V16.0192H83.3745H83.3746ZM88.6057 27.1246V13.5858H92.5123C94.1431 13.5858 95.3965 13.97 96.2727 14.7385C97.149 15.5069 97.587 16.5558 97.587 17.8853C97.587 18.9953 97.2493 19.9558 96.5739 20.7669C95.8984 21.5779 95.0192 22.0323 93.9361 22.13L97.733 27.1246H94.6571L91.137 22.13H91.1066V27.1246H88.6057ZM91.1066 16.0192V20.0443H92.5852C93.352 20.0443 93.9605 19.8827 94.4107 19.5594C94.861 19.2362 95.0861 18.727 95.0861 18.0317C95.0739 17.3487 94.8458 16.8425 94.4016 16.5132C93.9573 16.1839 93.3519 16.0193 92.5851 16.0193H91.1065L91.1066 16.0192ZM99.4592 27.1246V13.5858H101.96V27.1246H99.4592ZM104.727 27.1246V13.5858H111.591V16.0192H107.228V19.1477H111.39V21.581H107.228V27.1246H104.727H104.727ZM111.774 27.1246L117.412 13.5858H119.408L125.045 27.1246H122.28L120.911 23.6301H115.909L114.54 27.1246H111.774H111.774ZM116.861 21.1968H119.959L118.41 17.2451L116.861 21.1968H116.861ZM127.73 27.1246V16.0192H125.229V13.5858H132.732V16.0192H130.231V27.1246H127.73H127.73Z" fill="#00A0E3"/>
<path d="M137.58 27.1245V25.8986L144.191 14.8115H137.781V13.5856H145.721V14.8115L139.11 25.8986H145.922V27.1245H137.58H137.58ZM147.63 27.1245V13.5857H148.981V27.1245H147.63ZM155.307 27.1245V22.5871L150.689 13.5856H152.168L155.983 21.1844L159.798 13.5856H161.277L156.658 22.5871V27.1245H155.307H155.307ZM168.771 13.3478C170.791 13.3478 172.489 14.0064 173.864 15.3238C175.239 16.641 175.927 18.2938 175.927 20.282C175.927 22.3066 175.236 23.9929 173.855 25.3406C172.474 26.6884 170.779 27.3623 168.771 27.3623C166.751 27.3623 165.053 26.7037 163.678 25.3863C162.303 24.0691 161.615 22.4041 161.615 20.3916C161.615 18.3791 162.303 16.7019 163.678 15.3603C165.053 14.0186 166.751 13.3478 168.771 13.3478ZM168.789 26.1364C170.432 26.1364 171.808 25.5846 172.915 24.4807C174.022 23.3769 174.576 21.9772 174.576 20.2819C174.576 18.6231 174.022 17.2569 172.915 16.1836C171.808 15.1103 170.432 14.5735 168.789 14.5735C167.122 14.5735 165.735 15.1255 164.627 16.2293C163.52 17.3331 162.966 18.7205 162.966 20.3915C162.966 22.0747 163.523 23.453 164.637 24.5263C165.75 25.5997 167.134 26.1363 168.789 26.1363V26.1364Z" fill="#004663"/>
</svg>
