<svg width="281" height="291" viewBox="0 0 281 291" fill="none" xmlns="http://www.w3.org/2000/svg">
<path fill-rule="evenodd" clip-rule="evenodd" d="M121.363 118C121.363 118.594 121.363 119.188 121.363 119.782C126.776 120.781 131.877 122.846 135.463 127.253C133.219 122.387 127.504 119.783 121.363 118Z" fill="#00A0E3"/>
<path fill-rule="evenodd" clip-rule="evenodd" d="M118.744 120.603C118.744 121.277 118.744 121.952 118.744 122.626C125.417 122.626 129.848 123.797 135.225 127.513C131.039 123.471 125.673 120.42 118.744 120.603V120.603Z" fill="#00A0E3"/>
<path fill-rule="evenodd" clip-rule="evenodd" d="M150.326 118C150.326 118.594 150.326 119.188 150.326 119.782C144.912 120.781 139.811 122.846 136.225 127.253C138.469 122.387 144.184 119.783 150.326 118Z" fill="#00A0E3"/>
<path fill-rule="evenodd" clip-rule="evenodd" d="M152.944 120.603C152.944 121.277 152.944 121.952 152.944 122.626C146.271 122.626 141.84 123.797 136.463 127.513C140.649 123.471 146.015 120.42 152.944 120.603Z" fill="#00A0E3"/>
<path fill-rule="evenodd" clip-rule="evenodd" d="M136.225 128.743C136.225 137.302 136.225 145.862 136.225 154.421C142.055 150.791 146.66 148.809 153.636 149.239C153.636 145.219 153.636 141.198 153.636 137.178C151.789 137.178 149.942 137.178 148.096 137.178C148.096 135.326 148.096 133.474 148.096 131.622C149.958 131.622 151.82 131.622 153.683 131.622C153.683 130.735 153.683 129.848 153.683 128.961C154.56 128.961 155.436 128.961 156.313 128.961C156.313 128.095 156.313 127.228 156.313 126.362C154.523 126.362 152.734 126.362 150.944 126.362C150.944 125.464 150.944 124.567 150.944 123.669C144.845 124.142 141.409 125.301 136.225 128.743H136.225ZM145.334 134.495H146.269V135.43H145.334V134.495ZM146.326 138.191H147.599V139.464H146.326V138.191V138.191ZM142.175 132.519H144.152V134.495H142.175V132.519ZM146.548 128.41H147.949V129.811H146.548V128.41Z" fill="#00A0E3"/>
<path d="M117.787 125.464L117.807 123.545L118.184 123.554C121.917 123.649 124.591 123.936 127.091 124.662C129.594 125.389 131.905 126.551 134.912 128.394L135.089 128.503L135.122 134.547L134.377 134.021L134.347 128.923C131.48 127.174 129.263 126.068 126.884 125.377C124.537 124.696 122.015 124.412 118.543 124.309L118.531 125.47L117.787 125.464L117.787 125.464Z" fill="#00A0E3"/>
<path d="M123.145 134.382C122.333 134.29 121.507 134.204 120.675 134.142C119.978 134.091 119.277 134.055 118.58 134.045V148.308C121.902 148.386 124.532 148.709 127.028 149.404C129.453 150.08 131.742 151.103 134.407 152.592L134.362 140.922H135.107L135.156 153.876L134.596 153.556C131.737 151.923 129.351 150.825 126.83 150.122C124.304 149.419 121.631 149.106 118.201 149.044L117.833 149.038V133.296H118.207C119.039 133.296 119.885 133.335 120.731 133.398C121.567 133.461 122.404 133.547 123.229 133.641L123.145 134.382V134.382Z" fill="#00A0E3"/>
<path d="M117.833 131.818V126.502L118.185 126.481C119.604 126.398 121.107 126.402 122.593 126.521C123.945 126.629 125.288 126.832 126.545 127.151L126.828 127.223V138.285H126.081V127.805C124.949 127.537 123.747 127.362 122.534 127.265C121.201 127.158 119.858 127.146 118.58 127.207V131.818H117.833L117.833 131.818Z" fill="#00A0E3"/>
<path d="M128.867 133.021L135.119 135.889L135.161 139.458L132.108 137.682L132.185 149.248L131.675 149.051C129.726 148.298 128.176 147.717 126.596 147.268C125.024 146.823 123.421 146.509 121.359 146.289L121.437 145.548C123.547 145.772 125.188 146.094 126.797 146.551C128.259 146.965 129.694 147.492 131.434 148.16L131.355 136.382L134.402 138.154L134.38 136.369L128.558 133.698L128.867 133.021H128.867Z" fill="#00A0E3"/>
<path d="M131.655 145.132L131.648 145.13C130.86 144.842 130.07 144.554 129.194 144.253C128.767 144.107 128.336 143.963 127.917 143.832C127.479 143.696 127.051 143.57 126.649 143.467C125.822 143.254 125.018 143.104 124.215 142.955L124.209 142.954L124.346 142.222L124.35 142.222C125.162 142.374 125.974 142.525 126.833 142.746C127.276 142.86 127.713 142.987 128.139 143.12C128.584 143.259 129.017 143.404 129.436 143.547C130.247 143.825 131.075 144.127 131.903 144.429L131.912 144.432L131.655 145.132H131.655Z" fill="#00A0E3"/>
<path d="M127.956 143.566L128.025 139.282C126.022 138.368 124.418 138.167 122.344 137.907L121.554 137.806L121.647 137.067L122.435 137.166C124.65 137.444 126.344 137.656 128.56 138.708L128.777 138.811L128.7 143.577L127.956 143.566V143.566Z" fill="#00A0E3"/>
<path d="M120.901 129.812C121.33 129.85 121.758 129.888 122.327 129.945C122.806 129.993 123.281 130.046 123.748 130.11C124.682 130.237 125.597 130.408 126.512 130.579L126.523 130.581L126.386 131.313L126.376 131.311C125.473 131.142 124.57 130.974 123.649 130.848C123.186 130.785 122.72 130.733 122.254 130.686C121.879 130.648 121.358 130.602 120.837 130.556L120.901 129.812L120.901 129.812Z" fill="#00A0E3"/>
<path d="M126.554 128.612C126.889 128.705 127.225 128.799 127.566 128.905C127.926 129.017 128.312 129.148 128.749 129.315C129.622 129.647 130.706 130.127 131.789 130.606L131.488 131.289C130.414 130.813 129.339 130.338 128.484 130.012C128.057 129.849 127.687 129.724 127.344 129.617C126.982 129.505 126.669 129.417 126.355 129.329L126.554 128.611L126.554 128.612Z" fill="#00A0E3"/>
<path d="M149.937 144.848H147.859V146.926H149.937V144.848Z" fill="#00A0E3"/>
<path d="M156.364 122.756H155.08V124.041H156.364V122.756Z" fill="#00A0E3"/>
<path d="M158.57 124.041H156.364V126.247H158.57V124.041Z" fill="#00A0E3"/>
<path d="M160.015 124.041H158.57V125.486H160.015V124.041Z" fill="#00A0E3"/>
<path d="M164.161 121.31H162.799V122.672H164.161V121.31Z" fill="#00A0E3"/>
<path d="M156.313 134.5H153.636V137.178H156.313V134.5Z" fill="#00A0E3"/>
<path d="M153.636 133.1H152.235V134.501H153.636V133.1Z" fill="#00A0E3"/>
<path d="M158.99 128.96H156.313V131.638H158.99V128.96Z" fill="#00A0E3"/>
<path d="M160.438 127.513H158.99V128.961H160.438V127.513Z" fill="#00A0E3"/>
<path d="M162.091 132.5H158.99V134.5H162.091V132.5Z" fill="#00A0E3"/>
<path d="M162.974 134.5H162.091V135.383H162.974V134.5Z" fill="#00A0E3"/>
<path d="M158.455 135.398H157.572V136.281H158.455V135.398Z" fill="#00A0E3"/>
<path d="M161.935 137.474H160.669V138.74H161.935V137.474Z" fill="#00A0E3"/>
<path d="M118.207 132.565C118.619 132.565 118.953 132.23 118.953 131.818C118.953 131.406 118.619 131.071 118.207 131.071C117.794 131.071 117.46 131.406 117.46 131.818C117.46 132.23 117.794 132.565 118.207 132.565Z" fill="#00A0E3"/>
<path d="M123.187 134.759C123.599 134.759 123.934 134.424 123.934 134.012C123.934 133.599 123.599 133.265 123.187 133.265C122.774 133.265 122.44 133.599 122.44 134.012C122.44 134.424 122.774 134.759 123.187 134.759Z" fill="#00A0E3"/>
<path d="M128.712 134.106C129.125 134.106 129.459 133.771 129.459 133.359C129.459 132.947 129.125 132.612 128.712 132.612C128.3 132.612 127.966 132.947 127.966 133.359C127.966 133.771 128.3 134.106 128.712 134.106Z" fill="#00A0E3"/>
<path d="M121.398 140.499C121.81 140.499 122.145 140.165 122.145 139.752C122.145 139.34 121.81 139.005 121.398 139.005C120.986 139.005 120.651 139.34 120.651 139.752C120.651 140.165 120.986 140.499 121.398 140.499Z" fill="#00A0E3"/>
<path d="M125.962 141.183C126.375 141.183 126.709 140.849 126.709 140.437C126.709 140.024 126.375 139.69 125.962 139.69C125.55 139.69 125.216 140.024 125.216 140.437C125.216 140.849 125.55 141.183 125.962 141.183Z" fill="#00A0E3"/>
<path d="M124.277 143.335C124.69 143.335 125.024 143 125.024 142.588C125.024 142.176 124.69 141.841 124.277 141.841C123.865 141.841 123.531 142.176 123.531 142.588C123.531 143 123.865 143.335 124.277 143.335Z" fill="#00A0E3"/>
<path d="M121.452 139.383L126.016 140.067L125.909 140.806L121.344 140.121L121.452 139.383Z" fill="#00A0E3"/>
<path d="M121.881 129.327H120.166V131.042H121.881V129.327Z" fill="#00A0E3"/>
<path d="M132.637 130.303L131.032 129.702L130.43 131.307L132.035 131.909L132.637 130.303Z" fill="#00A0E3"/>
<path d="M122.567 136.652L120.858 136.513L120.719 138.222L122.428 138.361L122.567 136.652Z" fill="#00A0E3"/>
<path d="M122.366 145.144L120.668 144.906L120.43 146.604L122.128 146.842L122.366 145.144Z" fill="#00A0E3"/>
<path d="M135.592 140.064H133.877V141.779H135.592V140.064Z" fill="#00A0E3"/>
<path d="M78 174.573V160.484H81.5222L85.2728 171.238L89.0044 160.484H92.5456V174.573H89.9373V164.025L86.3771 174.573H84.1686L80.6084 164.025V174.573H78.0001H78ZM94.1841 174.573L100.064 160.484H102.145L108.025 174.573H105.141L103.713 170.937H98.4962L97.0683 174.573H94.184H94.1841ZM99.4895 168.404H102.72L101.105 164.292L99.4894 168.404H99.4895ZM107.094 163.017V160.484H109.626V162.921C109.626 163.518 109.569 163.962 109.454 164.254C109.34 164.546 109.169 164.793 108.94 164.997C108.712 165.212 108.436 165.381 108.112 165.501C107.788 165.622 107.462 165.682 107.132 165.682V164.406C107.436 164.419 107.693 164.327 107.903 164.13C108.112 163.933 108.217 163.67 108.217 163.34V163.017H107.093H107.094ZM112.549 174.573V160.484H116.624C118.324 160.484 119.632 160.884 120.546 161.684C121.459 162.483 121.916 163.575 121.916 164.958C121.916 166.113 121.564 167.113 120.86 167.957C120.155 168.801 119.238 169.274 118.109 169.375L122.069 174.573H118.861L115.189 169.375H115.158V174.573H112.549V174.573ZM115.158 163.017V167.205H116.7C117.499 167.205 118.134 167.037 118.604 166.701C119.073 166.364 119.308 165.834 119.308 165.111C119.295 164.4 119.057 163.873 118.594 163.531C118.131 163.188 117.499 163.017 116.7 163.017H115.157L115.158 163.017ZM123.869 174.573V160.484H126.477V174.573H123.869ZM129.363 174.573V160.484H136.521V163.017H131.971V166.272H136.312V168.804H131.971V174.573H129.363H129.363ZM136.713 174.573L142.593 160.484H144.674L150.554 174.573H147.67L146.242 170.937H141.025L139.597 174.573H136.713H136.713ZM142.018 168.404H145.249L143.633 164.292L142.018 168.404H142.018ZM153.354 174.573V163.017H150.746V160.484H158.571V163.017H155.962V174.573H153.354H153.354Z" fill="#00A0E3"/>
<path d="M163.627 174.573V173.297L170.522 161.76H163.836V160.484H172.118V161.76L165.223 173.297H172.327V174.573H163.627H163.627ZM174.108 174.573V160.484H175.517V174.573H174.108ZM182.115 174.573V169.851L177.299 160.484H178.841L182.82 168.392L186.799 160.484H188.341L183.525 169.851V174.573H182.116H182.115ZM196.158 160.237C198.265 160.237 200.035 160.922 201.469 162.293C202.904 163.664 203.621 165.384 203.621 167.453C203.621 169.559 202.901 171.314 201.46 172.717C200.019 174.119 198.252 174.82 196.158 174.82C194.051 174.82 192.28 174.135 190.846 172.764C189.412 171.394 188.694 169.661 188.694 167.567C188.694 165.472 189.412 163.727 190.846 162.331C192.28 160.935 194.051 160.237 196.158 160.237V160.237ZM196.177 173.545C197.89 173.545 199.324 172.971 200.479 171.822C201.634 170.673 202.212 169.217 202.212 167.452C202.212 165.726 201.634 164.305 200.479 163.188C199.324 162.071 197.89 161.512 196.177 161.512C194.438 161.512 192.991 162.087 191.836 163.235C190.681 164.384 190.103 165.828 190.103 167.567C190.103 169.318 190.684 170.752 191.845 171.869C193.007 172.986 194.451 173.545 196.177 173.545V173.545Z" fill="#004663"/>
</svg>
