<svg width="152" height="156" viewBox="0 0 152 156" fill="none" xmlns="http://www.w3.org/2000/svg">
<path fill-rule="evenodd" clip-rule="evenodd" d="M58.332 33C58.332 33.594 58.332 34.188 58.332 34.7821C63.745 35.7805 68.8469 37.8461 72.4321 42.2526C70.188 37.387 64.4731 34.7832 58.332 33Z" fill="#00A0E3"/>
<path fill-rule="evenodd" clip-rule="evenodd" d="M55.7137 35.6031C55.7137 36.2773 55.7137 36.9519 55.7137 37.6262C62.3859 37.6262 66.8178 38.7972 72.1947 42.5129C68.0086 38.471 62.6428 35.4198 55.7137 35.6031V35.6031Z" fill="#00A0E3"/>
<path fill-rule="evenodd" clip-rule="evenodd" d="M87.295 33C87.295 33.594 87.295 34.188 87.295 34.7821C81.8819 35.7805 76.7801 37.8461 73.1948 42.2526C75.4389 37.387 81.1539 34.7832 87.295 33Z" fill="#00A0E3"/>
<path fill-rule="evenodd" clip-rule="evenodd" d="M89.9133 35.6031C89.9133 36.2773 89.9133 36.9519 89.9133 37.6262C83.241 37.6262 78.809 38.7972 73.4323 42.5129C77.6184 38.471 82.9841 35.4198 89.9133 35.6031Z" fill="#00A0E3"/>
<path fill-rule="evenodd" clip-rule="evenodd" d="M73.1948 43.7428C73.1948 52.3024 73.1948 60.8617 73.1948 69.4213C79.0243 65.7908 83.629 63.8087 90.6053 64.2391C90.6053 60.2187 90.6053 56.1984 90.6053 52.178C88.7585 52.178 86.9119 52.178 85.0652 52.178C85.0652 50.326 85.0652 48.4739 85.0652 46.622C86.9276 46.622 88.7899 46.622 90.6523 46.622C90.6523 45.7349 90.6523 44.848 90.6523 43.9609C91.529 43.9609 92.4057 43.9609 93.2825 43.9609C93.2825 43.0945 93.2825 42.2283 93.2825 41.3619C91.4928 41.3619 89.7029 41.3619 87.9132 41.3619C87.9132 40.4645 87.9132 39.5668 87.9132 38.6694C81.8148 39.1423 78.3784 40.3011 73.1949 43.7428H73.1948ZM82.3037 49.4954H83.2385V50.4303H82.3037V49.4954ZM83.2955 53.1913H84.5679V54.4636H83.2955V53.1913V53.1913ZM79.1446 47.5189H81.121V49.4954H79.1446V47.5189ZM83.5176 43.4103H84.9183V44.811H83.5176V43.4103Z" fill="#00A0E3"/>
<path d="M54.7565 40.4642L54.7767 38.5449L55.153 38.5544C58.8867 38.6493 61.5601 38.9361 64.0603 39.6621C66.5637 40.389 68.8748 41.5505 71.8819 43.3943L72.0588 43.5027L72.0909 49.5471L71.3467 49.0208L71.3169 43.9225C68.4498 42.1744 66.232 41.068 63.8531 40.3771C61.5065 39.6955 58.9848 39.4119 55.5124 39.3092L55.5007 40.4703L54.7564 40.4643L54.7565 40.4642Z" fill="#00A0E3"/>
<path d="M60.114 49.3822C59.3024 49.2895 58.476 49.2044 57.6447 49.1425C56.9473 49.0907 56.2467 49.0551 55.5496 49.0454V63.3077C58.8714 63.386 61.5012 63.7085 63.9979 64.4042C66.4221 65.0797 68.7113 66.103 71.3761 67.5918L71.3319 55.9217H72.0761L72.1254 68.8759L71.5652 68.5561C68.7068 66.9228 66.3204 65.8246 63.7993 65.1222C61.2739 64.4185 58.6004 64.1059 55.1703 64.0443L54.8026 64.0378V48.2959H55.1761C56.0087 48.2959 56.8546 48.3353 57.6999 48.3983C58.5363 48.4607 59.3737 48.5469 60.1987 48.6412L60.114 49.3823V49.3822Z" fill="#00A0E3"/>
<path d="M54.8025 46.818V41.5022L55.1541 41.4814C56.5731 41.398 58.0764 41.4019 59.5622 41.5205C60.9147 41.6285 62.2572 41.8321 63.5143 42.151L63.7973 42.2228V53.2853H63.0503V42.8052C61.9181 42.5367 60.7164 42.3617 59.5037 42.2648C58.1706 42.1583 56.8276 42.1459 55.5495 42.207V46.8181H54.8024L54.8025 46.818Z" fill="#00A0E3"/>
<path d="M65.8366 48.0205L72.0883 50.8894L72.1306 54.4582L69.077 52.6821L69.1548 64.2485L68.6448 64.0512C66.6957 63.2982 65.1453 62.7165 63.5656 62.2684C61.9935 61.8226 60.39 61.5088 58.3281 61.2887L58.4068 60.5476C60.516 60.7724 62.157 61.0939 63.7668 61.5505C65.2284 61.9651 66.6638 62.4918 68.4032 63.1602L68.324 51.382L71.3709 53.154L71.3497 51.3693L65.5274 48.6976L65.8367 48.0205H65.8366Z" fill="#00A0E3"/>
<path d="M68.6241 60.1322L68.6171 60.1297C67.829 59.8417 67.0397 59.5541 66.1635 59.2535C65.7365 59.1069 65.3054 58.9631 64.8864 58.8322C64.4484 58.6956 64.0206 58.5704 63.6186 58.467C62.7911 58.2538 61.9875 58.1042 61.184 57.9549L61.178 57.954L61.3151 57.2217L61.3196 57.2225C62.1313 57.3736 62.943 57.5247 63.8024 57.7462C64.2458 57.8603 64.6822 57.9872 65.1082 58.1202C65.5529 58.2591 65.9867 58.4036 66.4057 58.5474C67.2164 58.8254 68.0446 59.1273 68.8724 59.4292L68.8809 59.4318L68.624 60.1322H68.6241Z" fill="#00A0E3"/>
<path d="M64.9254 58.5655L64.9947 54.2816C62.991 53.3683 61.3877 53.1672 59.3137 52.9072L58.5231 52.8057L58.6165 52.0674L59.4041 52.1661C61.6193 52.4438 63.3134 52.6561 65.5298 53.7082L65.7468 53.8113L65.6697 58.5772L64.9254 58.5656V58.5655Z" fill="#00A0E3"/>
<path d="M57.8704 44.8121C58.2989 44.85 58.7276 44.8879 59.2965 44.9449C59.7751 44.9927 60.2502 45.0463 60.7176 45.1098C61.651 45.2373 62.5662 45.4081 63.4811 45.5788L63.4925 45.5806L63.3553 46.313L63.3455 46.3111C62.4428 46.1424 61.5394 45.974 60.6186 45.8482C60.1552 45.785 59.6896 45.7326 59.2238 45.686C58.8484 45.6483 58.3269 45.6022 57.8065 45.5563L57.8705 44.812L57.8704 44.8121Z" fill="#00A0E3"/>
<path d="M63.523 43.6115C63.8581 43.7052 64.194 43.7992 64.5351 43.9053C64.8951 44.0173 65.2811 44.1476 65.7188 44.3145C66.5915 44.6472 67.6752 45.1265 68.7584 45.6056L68.4577 46.2886C67.3832 45.8131 66.3082 45.3378 65.4531 45.0117C65.0268 44.8493 64.656 44.7238 64.3132 44.6172C63.9518 44.5047 63.638 44.4169 63.3246 44.3293L63.5231 43.6113L63.523 43.6115Z" fill="#00A0E3"/>
<path d="M86.9059 59.8481H84.8282V61.9258H86.9059V59.8481Z" fill="#00A0E3"/>
<path d="M93.3332 37.7563H92.0489V39.0407H93.3332V37.7563Z" fill="#00A0E3"/>
<path d="M95.5391 39.0405H93.3331V41.2465H95.5391V39.0405Z" fill="#00A0E3"/>
<path d="M96.9846 39.0405H95.5391V40.486H96.9846V39.0405Z" fill="#00A0E3"/>
<path d="M101.13 36.3101H99.7684V37.6717H101.13V36.3101Z" fill="#00A0E3"/>
<path d="M93.2823 49.5005H90.605V52.1777H93.2823V49.5005Z" fill="#00A0E3"/>
<path d="M90.6053 48.1001H89.2046V49.5008H90.6053V48.1001Z" fill="#00A0E3"/>
<path d="M95.9595 43.9604H93.2823V46.6377H95.9595V43.9604Z" fill="#00A0E3"/>
<path d="M97.4074 42.5127H95.9596V43.9605H97.4074V42.5127Z" fill="#00A0E3"/>
<path d="M99.0602 47.4995H95.9595V49.5004H99.0602V47.4995Z" fill="#00A0E3"/>
<path d="M99.9429 49.5005H99.0602V50.3832H99.9429V49.5005Z" fill="#00A0E3"/>
<path d="M95.4242 50.3979H94.5415V51.2806H95.4242V50.3979Z" fill="#00A0E3"/>
<path d="M98.9046 52.4741H97.6385V53.7403H98.9046V52.4741Z" fill="#00A0E3"/>
<path d="M55.1761 47.5648C55.5885 47.5648 55.9228 47.2304 55.9228 46.818C55.9228 46.4056 55.5885 46.0713 55.1761 46.0713C54.7637 46.0713 54.4293 46.4056 54.4293 46.818C54.4293 47.2304 54.7637 47.5648 55.1761 47.5648Z" fill="#00A0E3"/>
<path d="M60.1562 49.7586C60.5686 49.7586 60.9029 49.4243 60.9029 49.0119C60.9029 48.5995 60.5686 48.2651 60.1562 48.2651C59.7438 48.2651 59.4094 48.5995 59.4094 49.0119C59.4094 49.4243 59.7438 49.7586 60.1562 49.7586Z" fill="#00A0E3"/>
<path d="M65.6819 49.1058C66.0943 49.1058 66.4286 48.7715 66.4286 48.359C66.4286 47.9466 66.0943 47.6123 65.6819 47.6123C65.2694 47.6123 64.9351 47.9466 64.9351 48.359C64.9351 48.7715 65.2694 49.1058 65.6819 49.1058Z" fill="#00A0E3"/>
<path d="M58.3674 55.4989C58.7798 55.4989 59.1141 55.1645 59.1141 54.7521C59.1141 54.3397 58.7798 54.0054 58.3674 54.0054C57.9549 54.0054 57.6206 54.3397 57.6206 54.7521C57.6206 55.1645 57.9549 55.4989 58.3674 55.4989Z" fill="#00A0E3"/>
<path d="M62.9319 56.1834C63.3443 56.1834 63.6786 55.8491 63.6786 55.4367C63.6786 55.0243 63.3443 54.6899 62.9319 54.6899C62.5194 54.6899 62.1851 55.0243 62.1851 55.4367C62.1851 55.8491 62.5194 56.1834 62.9319 56.1834Z" fill="#00A0E3"/>
<path d="M61.2466 58.3348C61.659 58.3348 61.9934 58.0005 61.9934 57.5881C61.9934 57.1756 61.659 56.8413 61.2466 56.8413C60.8342 56.8413 60.4999 57.1756 60.4999 57.5881C60.4999 58.0005 60.8342 58.3348 61.2466 58.3348Z" fill="#00A0E3"/>
<path d="M58.4213 54.3828L62.9857 55.0673L62.878 55.8056L58.3134 55.1211L58.4213 54.3828Z" fill="#00A0E3"/>
<path d="M58.8499 44.3271H57.1353V46.0418H58.8499V44.3271Z" fill="#00A0E3"/>
<path d="M69.6066 45.3035L68.0011 44.7017L67.3993 46.3071L69.0048 46.9089L69.6066 45.3035Z" fill="#00A0E3"/>
<path d="M59.5367 51.6516L57.8278 51.5127L57.6888 53.2216L59.3978 53.3605L59.5367 51.6516Z" fill="#00A0E3"/>
<path d="M59.3353 60.144L57.6373 59.9062L57.3995 61.6042L59.0975 61.842L59.3353 60.144Z" fill="#00A0E3"/>
<path d="M72.5613 55.0645H70.8466V56.7791H72.5613V55.0645Z" fill="#00A0E3"/>
<path d="M50 84.2935V76H52.0734L54.2813 82.3303L56.4779 76H58.5625V84.2935H57.0271V78.0845L54.9313 84.2935H53.6312L51.5355 78.0845V84.2935H50.0001H50ZM59.5271 84.2935L62.9882 76H64.2136L67.6747 84.2935H65.9768L65.1363 82.1528H62.0654L61.2249 84.2935H59.527H59.5271ZM62.6502 80.6623H64.5517L63.6009 78.2415L62.6501 80.6623H62.6502ZM67.1264 77.4906V76H68.617V77.4346C68.617 77.7857 68.5834 78.0472 68.5161 78.2191C68.4489 78.3909 68.348 78.5366 68.2135 78.6562C68.0791 78.7832 67.9165 78.8822 67.726 78.9532C67.5355 79.0242 67.343 79.0596 67.1488 79.0596V78.3087C67.3281 78.3162 67.4794 78.262 67.6027 78.1462C67.726 78.0304 67.7876 77.8753 67.7876 77.6811V77.4906H67.1263H67.1264ZM70.338 84.2935V76H72.7365C73.7377 76 74.5072 76.2353 75.0452 76.7061C75.5832 77.1768 75.8521 77.8193 75.8521 78.6337C75.8521 79.3136 75.6448 79.902 75.2301 80.3989C74.8154 80.8957 74.2756 81.1741 73.6106 81.2339L75.9417 84.2935H74.0533L71.8921 81.2339H71.8734V84.2935H70.338V84.2935ZM71.8734 77.4906V79.9563H72.7812C73.252 79.9563 73.6256 79.8572 73.902 79.6592C74.1784 79.4613 74.3166 79.1493 74.3166 78.7234C74.3092 78.305 74.1691 77.995 73.8964 77.7932C73.6236 77.5915 73.2519 77.4907 72.7812 77.4907H71.8734L71.8734 77.4906ZM77.0015 84.2935V76H78.5369V84.2935H77.0015ZM80.2356 84.2935V76H84.4496V77.4906H81.7711V79.4071H84.3264V80.8976H81.7711V84.2935H80.2357H80.2356ZM84.5624 84.2935L88.0236 76H89.2489L92.7101 84.2935H91.0122L90.1717 82.1528H87.1008L86.2603 84.2935H84.5624H84.5624ZM87.6856 80.6623H89.587L88.6363 78.2415L87.6855 80.6623H87.6856ZM94.3585 84.2935V77.4906H92.8231V76H97.4293V77.4906H95.8939V84.2935H94.3585H94.3585Z" fill="#00A0E3"/>
<path d="M61.7733 96.8533V96.1023L65.8322 89.3107H61.8966V88.5597H66.7718V89.3107L62.7128 96.1023H66.8951V96.8533H61.7734H61.7733ZM67.9436 96.8533V88.5598H68.773V96.8533H67.9436ZM72.6571 96.8533V94.0738L69.8216 88.5597H70.7295L73.0718 93.2145L75.4142 88.5597H76.322L73.4866 94.0738V96.8533H72.6572H72.6571ZM80.9233 88.4141C82.1636 88.4141 83.2059 88.8175 84.0501 89.6245C84.8945 90.4314 85.3166 91.4438 85.3166 92.6617C85.3166 93.902 84.8926 94.9349 84.0445 95.7605C83.1965 96.5861 82.1561 96.999 80.9233 96.999C79.683 96.999 78.6407 96.5955 77.7964 95.7885C76.9521 94.9817 76.5299 93.9617 76.5299 92.7289C76.5299 91.4961 76.9521 90.4687 77.7964 89.6469C78.6407 88.825 79.683 88.4141 80.9233 88.4141V88.4141ZM80.9345 96.248C81.9432 96.248 82.7874 95.91 83.4674 95.2338C84.1473 94.5576 84.4872 93.7002 84.4872 92.6617C84.4872 91.6456 84.1473 90.8087 83.4674 90.1512C82.7874 89.4937 81.9432 89.1649 80.9345 89.1649C79.9109 89.1649 79.0591 89.503 78.3792 90.1792C77.6993 90.8554 77.3594 91.7053 77.3594 92.7289C77.3594 93.7599 77.7012 94.6043 78.3848 95.2617C79.0685 95.9192 79.9184 96.248 80.9345 96.248V96.248Z" fill="#004663"/>
</svg>
